<?xml version="1.0" encoding="UTF-8" standalone="no"?>
<!-- Creator: CorelDRAW -->

<svg
   xmlns:dc="http://purl.org/dc/elements/1.1/"
   xmlns:cc="http://creativecommons.org/ns#"
   xmlns:rdf="http://www.w3.org/1999/02/22-rdf-syntax-ns#"
   xmlns:svg="http://www.w3.org/2000/svg"
   xmlns="http://www.w3.org/2000/svg"
   xmlns:sodipodi="http://sodipodi.sourceforge.net/DTD/sodipodi-0.dtd"
   xmlns:inkscape="http://www.inkscape.org/namespaces/inkscape"
   xml:space="preserve"
   width="141.37772"
   height="49.000004"
   style="fill-rule:evenodd"
   viewBox="0 0 39.899934 13.82889"
   id="svg2"
   sodipodi:version="0.32"
   inkscape:version="0.48.3.1 r9886"
   sodipodi:docname="logo_conab.svg"
   inkscape:output_extension="org.inkscape.output.svg.inkscape"
   version="1.1"><metadata
   id="metadata90"><rdf:RDF><cc:Work
       rdf:about=""><dc:format>image/svg+xml</dc:format><dc:type
         rdf:resource="http://purl.org/dc/dcmitype/StillImage" /><dc:title></dc:title></cc:Work></rdf:RDF></metadata><sodipodi:namedview
   inkscape:window-height="878"
   inkscape:window-width="1490"
   inkscape:pageshadow="2"
   inkscape:pageopacity="0.0"
   guidetolerance="10.0"
   gridtolerance="10.0"
   objecttolerance="10.0"
   borderopacity="1.0"
   bordercolor="#666666"
   pagecolor="#ffffff"
   id="base"
   inkscape:zoom="0.54562963"
   inkscape:cx="554.02004"
   inkscape:cy="218.98282"
   inkscape:window-x="110"
   inkscape:window-y="0"
   inkscape:current-layer="svg2"
   showgrid="false"
   inkscape:window-maximized="1"
   fit-margin-top="0"
   fit-margin-left="0"
   fit-margin-right="0"
   fit-margin-bottom="0" />
 <defs
   id="defs4">
  <style
   type="text/css"
   id="style6">
   
    .fil8 {fill:#005CA1}
    .fil7 {fill:#00853C}
    .fil5 {fill:#1F1A17}
    .fil9 {fill:#56BBED}
    .fil4 {fill:#DA251D}
    .fil3 {fill:#E4547E}
    .fil6 {fill:#F8C300}
    .fil10 {fill:white}
    .fil0 {fill:#083160;fill-rule:nonzero}
    .fil2 {fill:#1F1A17;fill-rule:nonzero}
    .fil1 {fill:#2B9934;fill-rule:nonzero}
   
  </style>
 
  <metadata
   id="CorelCorpID_0Corel-Layer" />
  
 
   
   
   
  
    
    
    
    
    
    
    
   </defs>
 <path
   inkscape:connector-curvature="0"
   style="fill:#ffffff;fill-opacity:1;fill-rule:nonzero"
   d="m 13.23869,9.2759492 c -1.490917,0 -1.971018,-0.99153 -1.971018,-2.05276 0,-1.35189 0.707389,-2.29926 2.13507,-2.29926 0.302933,0 0.625222,0.038 0.903483,0.11358 l -0.08862,0.7456 c -0.277907,-0.0822 -0.568505,-0.12648 -0.859103,-0.12648 -0.795865,0 -1.187347,0.6002 -1.187347,1.4274 0,0.92865 0.385102,1.44661 1.244205,1.44661 0.258978,0 0.606222,-0.0759 0.827626,-0.17675 l 0.0945,0.73277 c -0.315907,0.11379 -0.701008,0.18929 -1.0988,0.18929 l 0,0 z"
   class="fil0"
   id="_135877536" /><path
   inkscape:connector-curvature="0"
   style="fill:#ffffff;fill-opacity:1;fill-rule:nonzero"
   d="m 16.315032,6.6988592 c -0.360147,0 -0.713629,0.27797 -0.713629,0.92212 0,0.64437 0.23367,0.97296 0.701009,0.97296 0.398146,0 0.701292,-0.32228 0.701292,-0.96034 0,-0.60615 -0.214883,-0.93474 -0.688672,-0.93474 l 0,0 z m -0.08217,2.58347 c -0.890439,0 -1.465325,-0.46102 -1.465325,-1.57918 0,-0.97899 0.650744,-1.68666 1.604423,-1.68666 0.890508,0 1.465324,0.493 1.465324,1.57316 0,0.98501 -0.66308,1.69268 -1.604422,1.69268 z"
   class="fil0"
   id="_135876776" /><path
   inkscape:connector-curvature="0"
   style="fill:#ffffff;fill-opacity:1;fill-rule:nonzero"
   d="m 20.453022,9.2190992 0,-2.00867 c 0,-0.32845 -0.08862,-0.52419 -0.385457,-0.52419 -0.410409,0 -0.732698,0.46762 -0.732698,1.01691 l 0,1.51595 -0.808555,0 0,-3.13937 0.764246,0 c 0,0.14548 -0.01263,0.39177 -0.04396,0.55617 l 0.0061,0.006 c 0.189645,-0.37249 0.555886,-0.63147 1.067536,-0.63147 0.707599,0 0.93503,0.45472 0.93503,1.00423 l 0,2.2044 -0.802245,0 0,0 z"
   class="fil0"
   id="_135876392" /><path
   inkscape:connector-curvature="0"
   style="fill:#ffffff;fill-opacity:1;fill-rule:nonzero"
   d="m 23.750765,7.8296992 c -0.85251,0 -1.042224,0.246 -1.042224,0.49889 0,0.20205 0.139096,0.33455 0.372765,0.33455 0.397791,0 0.669459,-0.37872 0.669459,-0.75758 l 0,-0.0759 z m 0.06324,1.3894 c 0,-0.18305 0.006,-0.36653 0.03133,-0.53058 l -0.0061,-0.006 c -0.151784,0.35384 -0.536885,0.60013 -1.004294,0.60013 -0.568507,0 -0.897034,-0.32194 -0.897034,-0.82756 0,-0.75163 0.745318,-1.14942 1.812852,-1.14942 l 0,-0.17078 c 0,-0.32846 -0.158095,-0.49868 -0.612459,-0.49868 -0.284645,0 -0.663434,0.0946 -0.92844,0.24608 l -0.0699,-0.67577 c 0.315908,-0.11379 0.720361,-0.19574 1.124462,-0.19574 1.010605,0 1.294896,0.41048 1.294896,1.09284 l 0,1.30723 c 0,0.2526 0.0063,0.54986 0.01899,0.80856 l -0.764319,0 0,0 z"
   class="fil0"
   id="_135874600" /><path
   inkscape:connector-curvature="0"
   style="fill:#ffffff;fill-opacity:1;fill-rule:nonzero"
   d="m 26.922033,6.6862392 c -0.423029,0 -0.675769,0.48633 -0.675769,1.0106 l 0,0.88442 c 0.113857,0.0379 0.246361,0.0566 0.423172,0.0566 0.455003,0 0.789484,-0.2906 0.789484,-1.06753 0,-0.58723 -0.170361,-0.88413 -0.536887,-0.88413 l 0,0 z m -0.315835,2.59609 c -0.454721,0 -0.808273,-0.0506 -1.168417,-0.1515 l 0,-4.52281 0.808483,0 0,1.3519 c 0,0.18964 -0.01894,0.44834 -0.05062,0.61281 l 0.0064,0 c 0.158095,-0.34121 0.512002,-0.55624 0.947651,-0.55624 0.751698,0 1.155799,0.54348 1.155799,1.47199 0,1.06116 -0.619125,1.79385 -1.699279,1.79385 z"
   class="fil0"
   id="_135873760" /><path
   inkscape:connector-curvature="0"
   style="fill:#2b9934;fill-rule:nonzero"
   d="m 4.4902668,1.7074992 c -0.05147,0.0852 -0.1710693,0.29032 -0.2565685,0.40956 2.8684055,1.46809 3.9265111,2.86798 3.9265111,4.33607 0,2.18569 -1.0581056,3.24387 -2.6972654,4.8317698 l 0,0.0172 C 7.3751907,9.9704792 8.3993375,8.8779892 8.9116237,7.5457292 c 0.034313,-0.11924 0.085499,-0.32406 0.085499,-0.54567 0,-1.67341 -1.7414609,-3.63655 -4.5068562,-5.29252 l 0,0 z M 4.7291113,12.121739 c 0.051116,-0.0855 0.170715,-0.29052 0.2559305,-0.41012 -2.86798,-1.46809 -3.9265111,-2.8679798 -3.9265111,-4.3364298 0,-2.18498 1.0585311,-3.24379 2.6972654,-4.83113 l 0,-0.0175 c -1.9118921,1.33197 -2.93632271,2.42453 -3.44832523,3.75608 -0.0343132,0.11988 -0.0855702,0.32442 -0.0855702,0.54632 0,1.67312 1.74124843,3.6365498 4.50721063,5.2927898 z M 1.6899911,7.0000192 c 0,-1.62229 1.297943,-2.93668 2.9023643,-2.93668 -0.085216,1.68999 -1.2120184,3.15829 -2.7997085,3.68774 -0.068626,-0.23913 -0.1026558,-0.49535 -0.1026558,-0.75106 z m 0.6318149,1.80952 c -0.1020885,-0.13641 -0.2047442,-0.29032 -0.2900306,-0.44423 2.0143351,-0.2728 3.5338952,-2.01427 3.5338952,-4.04604 l 0,-0.10209 c 0.3412168,0.1196 0.631744,0.29032 0.9045473,0.49471 0,2.0999 -1.6215776,3.89262 -3.7557253,4.08049 -0.1192451,0.0172 -0.2391284,0.0172 -0.3583735,0.0172 l -0.034313,0 z m 0.5802744,0.54624 c -0.1192451,-0.0856 -0.2219009,-0.17071 -0.3068329,-0.25593 0.1364018,0.0168 0.28996,0.034 0.4263616,0.034 2.1342185,0 3.8928359,-1.60471 4.0976511,-3.65364 0.2387739,0.39304 0.37553,0.83656 0.4098431,1.33162 -0.5806288,1.55352 -2.1001889,2.62928 -3.8412952,2.62928 -0.273158,0 -0.5294428,-0.0341 -0.7857277,-0.0853 l 0,0 z m 0.3415004,0.20475 c 0.3246275,0.0684 0.6489715,0.10272 0.9901175,0.10272 1.1268735,0 2.1342185,-0.42671 2.8855619,-1.19521 -0.5294428,0.85343 -1.4171877,1.43406 -2.5097483,1.43406 -0.4950587,0 -0.9217038,-0.1196 -1.3659311,-0.34157 z"
   class="fil1"
   id="_135873600" /><path
   inkscape:connector-curvature="0"
   style="fill:#083160;fill-rule:nonzero"
   d="M 4.9507287,-8.3580652e-7 C 4.9507287,0.59749916 4.76307,1.1781292 4.4902668,1.7074992 c 2.7653953,1.65597 4.5068562,3.61911 4.5068562,5.29252 0,0.22161 -0.051186,0.42643 -0.085216,0.54567 0.2044608,-0.51193 0.3071874,-1.09256 0.3071874,-1.67248 0,-1.98037 -1.4852472,-3.97805 -4.268366,-5.87321003580653 l 0,0 z M 4.2683658,13.828889 c 0,-0.59778 0.1875878,-1.17806 0.4607455,-1.70715 -2.7659622,-1.65624 -4.50721065,-3.6196698 -4.50721065,-5.2927898 0,-0.2219 0.051257,-0.42644 0.0855702,-0.54632 C 0.10265553,6.7946292 0,7.3751892 0,7.9558192 c 0,1.98024 1.4851761,3.9776998 4.2683658,5.8730698 z"
   class="fil0"
   id="_135872792" />
<text
   xml:space="preserve"
   style="font-size:40.63999939px;font-style:normal;font-weight:normal;line-height:125%;letter-spacing:0px;word-spacing:0px;fill:#000000;fill-opacity:1;stroke:none;font-family:Bitstream Vera Sans"
   x="287.27713"
   y="-30.386715"
   id="text2998"
   sodipodi:linespacing="125%"><tspan
     sodipodi:role="line"
     id="tspan3000"
     x="287.27713"
     y="-30.386715"
     style="font-size:56.44444656px" /></text>

<text
   xml:space="preserve"
   style="font-size:6.6808362px;font-style:normal;font-variant:normal;font-weight:normal;font-stretch:normal;line-height:125%;letter-spacing:0px;word-spacing:0px;fill:#babdb6;fill-opacity:1;stroke:none;font-family:Calibri;-inkscape-font-specification:Calibri"
   x="28.417248"
   y="9.1143999"
   id="text3008"
   sodipodi:linespacing="125%"><tspan
     sodipodi:role="line"
     id="tspan3010"
     x="28.417248"
     y="9.1143999">Mail</tspan></text>

</svg>